<svg width="472" height="437" viewBox="0 0 472 437" fill="none" xmlns="http://www.w3.org/2000/svg">
<path d="M387.999 384.222C328.737 435.185 225.199 445.543 162.538 395.827C132.182 366.954 132.871 322.883 129.859 284.032C123.989 256.652 117.269 229.622 97.4087 208.822C51.3507 170.222 19.2847 131.964 53.5217 71.4497C124.651 -26.7153 299.63 -18.6173 380.037 64.5537C449.79 148.792 469.433 301.638 387.999 384.222Z" fill="#E0E1DD"/>
<path d="M157.887 134.85C157.725 134.85 157.576 134.763 157.495 134.624L153.225 127.232C153.144 127.092 153.144 126.919 153.225 126.779L157.495 119.388C157.575 119.248 157.725 119.162 157.887 119.162C158.049 119.162 158.198 119.248 158.279 119.387L162.559 126.778C162.64 126.919 162.64 127.092 162.559 127.232L158.279 134.624C158.198 134.764 158.048 134.85 157.887 134.85ZM154.139 127.005L157.888 133.493L161.644 127.005L157.888 120.518L154.139 127.005Z" fill="#1B263B"/>
<path d="M146.009 125.995C144.587 125.995 143.43 124.838 143.43 123.416C143.43 121.994 144.587 120.838 146.009 120.838C147.431 120.838 148.587 121.994 148.587 123.416C148.587 124.838 147.431 125.995 146.009 125.995ZM146.009 121.743C145.086 121.743 144.335 122.494 144.335 123.416C144.335 124.339 145.086 125.09 146.009 125.09C146.931 125.09 147.682 124.339 147.682 123.416C147.682 122.494 146.931 121.743 146.009 121.743Z" fill="#1B263B"/>
<path d="M153.612 116.509C152.37 116.509 151.359 115.498 151.359 114.256C151.359 113.015 152.37 112.004 153.612 112.004C154.854 112.004 155.865 113.015 155.865 114.256C155.865 115.499 154.855 116.509 153.612 116.509ZM153.612 112.91C152.869 112.91 152.265 113.514 152.265 114.257C152.265 115 152.87 115.604 153.612 115.604C154.355 115.604 154.959 114.999 154.959 114.257C154.96 113.514 154.355 112.91 153.612 112.91Z" fill="#1B263B"/>
<path d="M143.886 117.546C142.967 117.546 142.219 116.798 142.219 115.879C142.219 114.96 142.967 114.211 143.886 114.211C144.805 114.211 145.553 114.96 145.553 115.879C145.553 116.798 144.805 117.546 143.886 117.546ZM143.886 115.116C143.466 115.116 143.124 115.458 143.124 115.879C143.124 116.299 143.466 116.641 143.886 116.641C144.306 116.641 144.648 116.299 144.648 115.879C144.648 115.458 144.306 115.116 143.886 115.116Z" fill="#1B263B"/>
<path d="M323.095 102.395C322.933 102.395 322.784 102.309 322.703 102.169L319.436 96.5127C319.355 96.3727 319.355 96.1997 319.436 96.0597L322.703 90.4037C322.783 90.2637 322.933 90.1777 323.095 90.1777C323.257 90.1777 323.406 90.2637 323.487 90.4037L326.762 96.0597C326.843 96.1997 326.843 96.3727 326.762 96.5137L323.487 102.17C323.406 102.308 323.257 102.395 323.095 102.395ZM320.351 96.2857L323.096 101.038L325.846 96.2857L323.096 91.5337L320.351 96.2857Z" fill="#1B263B"/>
<path d="M315.36 93.9041C313.938 93.9041 312.781 92.7471 312.781 91.3251C312.781 89.9031 313.938 88.7461 315.36 88.7461C316.782 88.7461 317.938 89.9031 317.938 91.3251C317.938 92.7471 316.782 93.9041 315.36 93.9041ZM315.36 89.6521C314.437 89.6521 313.686 90.4031 313.686 91.3261C313.686 92.2491 314.437 92.9991 315.36 92.9991C316.282 92.9991 317.033 92.2481 317.033 91.3261C317.033 90.4031 316.282 89.6521 315.36 89.6521Z" fill="#1B263B"/>
<path d="M322.964 87.5265C321.722 87.5265 320.711 86.5155 320.711 85.2735C320.711 84.0315 321.722 83.0215 322.964 83.0215C324.206 83.0215 325.217 84.0325 325.217 85.2735C325.217 86.5165 324.207 87.5265 322.964 87.5265ZM322.964 83.9265C322.221 83.9265 321.617 84.5305 321.617 85.2735C321.617 86.0165 322.222 86.6205 322.964 86.6205C323.707 86.6205 324.311 86.0165 324.311 85.2735C324.312 84.5315 323.707 83.9265 322.964 83.9265Z" fill="#1B263B"/>
<path d="M315.362 85.1416C314.443 85.1416 313.695 84.3936 313.695 83.4746C313.695 82.5556 314.443 81.8066 315.362 81.8066C316.281 81.8066 317.029 82.5546 317.029 83.4746C317.029 84.3946 316.282 85.1416 315.362 85.1416ZM315.362 82.7116C314.942 82.7116 314.6 83.0536 314.6 83.4746C314.6 83.8956 314.942 84.2366 315.362 84.2366C315.782 84.2366 316.124 83.8946 316.124 83.4746C316.124 83.0546 315.782 82.7116 315.362 82.7116Z" fill="#1B263B"/>
<path d="M391.301 309.405C391.139 309.405 390.99 309.318 390.909 309.179L386.639 301.787C386.558 301.647 386.558 301.474 386.639 301.334L390.909 293.943C390.99 293.803 391.139 293.717 391.301 293.717C391.462 293.717 391.612 293.803 391.693 293.942L395.973 301.333C396.054 301.474 396.054 301.647 395.973 301.787L391.693 309.179C391.612 309.32 391.463 309.405 391.301 309.405ZM387.554 301.561L391.302 308.049L395.058 301.561L391.302 295.074L387.554 301.561Z" fill="#1B263B"/>
<path d="M401.774 313.587C400.352 313.587 399.195 312.431 399.195 311.009C399.195 309.587 400.352 308.43 401.774 308.43C403.196 308.43 404.353 309.587 404.353 311.009C404.353 312.431 403.196 313.587 401.774 313.587ZM401.774 309.335C400.851 309.335 400.1 310.086 400.1 311.009C400.1 311.931 400.851 312.682 401.774 312.682C402.697 312.682 403.447 311.931 403.447 311.009C403.447 310.086 402.697 309.335 401.774 309.335Z" fill="#1B263B"/>
<path d="M387.268 291.066C386.026 291.066 385.016 290.055 385.016 288.814C385.016 287.572 386.027 286.561 387.268 286.561C388.51 286.561 389.521 287.572 389.521 288.814C389.521 290.056 388.51 291.066 387.268 291.066ZM387.268 287.467C386.525 287.467 385.921 288.072 385.921 288.814C385.921 289.556 386.525 290.16 387.268 290.16C388.011 290.16 388.615 289.556 388.615 288.814C388.615 288.072 388.011 287.467 387.268 287.467Z" fill="#1B263B"/>
<path d="M400.104 299.557C399.185 299.557 398.438 298.809 398.438 297.89C398.438 296.971 399.185 296.223 400.104 296.223C401.023 296.223 401.772 296.971 401.772 297.89C401.772 298.809 401.024 299.557 400.104 299.557ZM400.104 297.128C399.684 297.128 399.342 297.47 399.342 297.89C399.342 298.31 399.684 298.652 400.104 298.652C400.524 298.652 400.867 298.31 400.867 297.89C400.867 297.47 400.525 297.128 400.104 297.128Z" fill="#1B263B"/>
<path d="M400.619 291.064C400.457 291.064 400.308 290.977 400.227 290.838L397.545 286.196C397.464 286.056 397.464 285.883 397.545 285.743L400.227 281.101C400.308 280.961 400.457 280.875 400.619 280.875C400.78 280.875 400.93 280.961 401.011 281.1L403.699 285.742C403.78 285.883 403.78 286.056 403.699 286.196L401.011 290.838C400.93 290.979 400.78 291.064 400.619 291.064ZM398.46 285.97L400.619 289.707L402.783 285.97L400.619 282.232L398.46 285.97Z" fill="#1B263B"/>
<path d="M377.401 308.445C376.482 308.445 375.734 307.697 375.734 306.778C375.734 305.859 376.482 305.111 377.401 305.111C378.32 305.111 379.069 305.859 379.069 306.778C379.069 307.697 378.32 308.445 377.401 308.445ZM377.401 306.016C376.981 306.016 376.639 306.358 376.639 306.778C376.639 307.198 376.981 307.54 377.401 307.54C377.821 307.54 378.164 307.198 378.164 306.778C378.164 306.358 377.821 306.016 377.401 306.016Z" fill="#1B263B"/>
<path d="M141.909 220.9C141.909 220.9 148.884 385.702 148.259 412.806H112.398L94.0312 222.28L141.909 220.9Z" fill="#1B263B"/>
<path d="M59.0719 222.84L54.2529 311.061L28.5859 412.806H67.0409L105.732 310.644L122.172 221.83L59.0719 222.84Z" fill="#1B263B"/>
<path d="M103.75 316.368L102.727 316.159C108.59 287.312 113.513 257.857 117.356 228.614L117.411 228.198L129.639 227.143L129.729 228.184L118.337 229.166C114.498 258.296 109.591 287.633 103.75 316.368Z" fill="white"/>
<path d="M31.5391 412.91H62.0941L70.1631 420.036C70.1631 420.036 94.0741 419.361 94.0741 436.847H31.5391V412.91Z" fill="#415A77"/>
<path d="M33.6514 434.83H33.7614L92.5814 434.609C92.8114 434.608 92.9974 434.421 92.9964 434.191C92.9954 433.962 92.8094 433.777 92.5804 433.777L33.6494 433.998C33.4194 433.999 33.2334 434.186 33.2344 434.416C33.2364 434.645 33.4224 434.83 33.6514 434.83Z" fill="#1B263B"/>
<path d="M50.1387 422.767C47.9997 422.539 46.6957 421.695 46.4647 420.39C46.1657 418.702 47.8357 417.491 49.3567 416.967C54.1137 415.327 59.6257 416.342 63.5407 419.47C64.6397 415.893 66.5867 412.602 69.2007 409.918C70.0177 409.078 71.0257 408.187 72.3157 407.939C73.6277 407.687 75.2527 408.355 75.5857 409.752C75.9027 411.083 74.9517 412.265 74.0867 413.145C71.2037 416.084 68.0237 418.773 64.6377 421.135C64.5177 421.22 64.3667 421.23 64.2367 421.177C64.1947 421.216 64.1437 421.247 64.0857 421.266C60.7277 422.379 57.1597 422.949 53.6067 422.949C52.4457 422.949 51.2877 422.888 50.1387 422.767ZM63.3417 420.385C59.6297 417.224 54.2507 416.16 49.6267 417.754C48.6517 418.089 47.0617 418.991 47.2837 420.245C47.5087 421.516 49.4157 421.852 50.2257 421.938C54.6567 422.409 59.2307 421.942 63.4767 420.589C63.4127 420.536 63.3657 420.465 63.3417 420.385ZM72.4717 408.756C71.4077 408.96 70.5217 409.751 69.7957 410.498C67.1907 413.174 65.2717 416.475 64.2317 420.061C64.3027 420.125 64.3727 420.191 64.4427 420.257C67.6817 417.972 70.7247 415.385 73.4927 412.564C74.2067 411.836 74.9977 410.881 74.7757 409.947C74.5877 409.159 73.7027 408.719 72.8787 408.719C72.7397 408.719 72.6027 408.73 72.4717 408.756Z" fill="#1B263B"/>
<path d="M115.188 412.66H145.742L153.811 419.786C153.811 419.786 177.722 419.111 177.722 436.597H115.188V412.66Z" fill="#415A77"/>
<path d="M117.3 434.58H117.301H117.41L176.23 434.359C176.46 434.358 176.646 434.171 176.645 433.941C176.644 433.712 176.458 433.527 176.229 433.527L117.298 433.748C117.068 433.749 116.882 433.936 116.883 434.166C116.885 434.395 117.071 434.58 117.3 434.58Z" fill="#1B263B"/>
<path d="M133.787 422.517C131.648 422.289 130.344 421.445 130.113 420.14C129.814 418.452 131.484 417.241 133.005 416.717C137.762 415.077 143.274 416.092 147.189 419.22C148.288 415.643 150.235 412.352 152.849 409.668C153.666 408.828 154.674 407.937 155.964 407.689C157.276 407.437 158.901 408.105 159.234 409.502C159.551 410.833 158.6 412.015 157.735 412.895C154.852 415.834 151.672 418.523 148.286 420.885C148.166 420.97 148.015 420.98 147.885 420.927C147.843 420.966 147.792 420.997 147.734 421.016C144.376 422.129 140.808 422.699 137.255 422.699C136.095 422.699 134.936 422.638 133.787 422.517ZM146.991 420.135C143.279 416.974 137.9 415.91 133.276 417.504C132.301 417.839 130.711 418.741 130.933 419.995C131.158 421.266 133.065 421.602 133.875 421.688C138.306 422.159 142.88 421.692 147.126 420.339C147.061 420.286 147.014 420.215 146.991 420.135ZM156.121 408.506C155.057 408.71 154.171 409.501 153.445 410.248C150.84 412.924 148.921 416.225 147.881 419.811C147.952 419.875 148.022 419.941 148.092 420.007C151.331 417.722 154.374 415.135 157.142 412.314C157.856 411.586 158.647 410.631 158.425 409.697C158.237 408.909 157.352 408.469 156.528 408.469C156.389 408.469 156.251 408.481 156.121 408.506Z" fill="#1B263B"/>
<path d="M137 182.172L141.91 220.902L137.09 240.642L122.17 221.832L100.77 240.642L59.0697 222.842L59.5697 206.632C47.3397 209.132 36.0097 199.502 36.4997 187.032L41.6217 127.284C41.9517 118.944 48.0747 106.487 56.1047 104.237L83.5997 96.1016L107.55 100.482L123.83 105.482C131.01 107.692 136.25 113.872 137.24 121.312L142 156.912L164.43 162.712L165.26 182.172H137Z" fill="#415A77"/>
<path d="M67.0397 175.717C67.0227 175.717 67.0057 175.716 66.9877 175.715C66.7137 175.687 66.5137 175.441 66.5417 175.166L70.6187 135.506C70.6477 135.232 70.8897 135.041 71.1677 135.06C71.4417 135.088 71.6417 135.334 71.6137 135.609L67.5367 175.269C67.5107 175.526 67.2937 175.717 67.0397 175.717Z" fill="#1B263B"/>
<path d="M61.1067 206.666C60.8947 206.666 60.6977 206.53 60.6297 206.317C60.5467 206.053 60.6917 205.773 60.9547 205.689L110.121 190.083L104.405 169.671L54.3367 178.488C54.0627 178.539 53.8047 178.355 53.7577 178.083C53.7097 177.811 53.8907 177.552 54.1627 177.504L104.678 168.608C104.934 168.562 105.177 168.718 105.246 168.965L111.215 190.278C111.288 190.538 111.142 190.808 110.885 190.889L61.2587 206.642C61.2077 206.659 61.1567 206.666 61.1067 206.666Z" fill="#1B263B"/>
<path d="M130.05 161.077C129.8 161.077 129.584 160.89 129.554 160.636L125.847 129.315C125.815 129.041 126.011 128.793 126.285 128.76C126.558 128.725 126.807 128.924 126.84 129.198L130.547 160.519C130.579 160.793 130.383 161.041 130.109 161.074C130.089 161.076 130.07 161.077 130.05 161.077Z" fill="#1B263B"/>
<path d="M105.954 119.747C105.848 119.747 105.741 119.713 105.651 119.644L96.7456 112.83C95.8806 112.847 91.7316 113.2 90.8796 118.31C90.8486 118.495 90.7176 118.646 90.5406 118.704C90.3636 118.764 90.1676 118.716 90.0356 118.584C89.9426 118.492 80.7546 109.252 81.5486 97.4378C81.5676 97.1628 81.8046 96.9658 82.0816 96.9728C82.3566 96.9918 82.5656 97.2298 82.5466 97.5058C81.9056 107.046 88.0676 114.877 90.1016 117.183C91.5746 111.688 96.8836 111.836 96.9356 111.831C97.0386 111.835 97.1386 111.871 97.2196 111.934L106.258 118.851C106.477 119.019 106.519 119.332 106.351 119.552C106.254 119.68 106.105 119.747 105.954 119.747Z" fill="#1B263B"/>
<path d="M108.368 119.748C108.344 119.748 108.32 119.747 108.295 119.743C108.022 119.703 107.833 119.449 107.873 119.176L108.934 111.948C108.953 111.817 109.024 111.698 109.131 111.619C109.238 111.54 109.374 111.509 109.503 111.526C109.616 111.543 111.634 111.859 112.949 112.886C112.831 110.172 112.14 104.325 108.462 101.873C108.232 101.72 108.17 101.409 108.323 101.18C108.475 100.95 108.785 100.888 109.016 101.041C114.332 104.585 113.981 113.962 113.964 114.359C113.953 114.598 113.776 114.796 113.539 114.831C113.305 114.864 113.074 114.73 112.994 114.506C112.615 113.448 110.891 112.849 109.848 112.61L108.863 119.32C108.825 119.569 108.612 119.748 108.368 119.748Z" fill="#1B263B"/>
<path d="M158.747 164.632L144.477 166.382L148.437 169.472C149.887 170.602 150.147 172.702 149.017 174.152C148.357 174.992 147.377 175.432 146.387 175.432C146.287 175.432 146.177 175.432 146.077 175.422C146.437 176.452 146.297 177.662 145.567 178.592C144.907 179.432 143.917 179.872 142.927 179.872C142.577 179.872 142.217 179.812 141.877 179.702C142.287 180.762 142.137 181.992 141.397 182.942C140.737 183.782 139.757 184.222 138.757 184.222C138.047 184.222 137.327 184.002 136.717 183.532L133.717 181.192L133.317 181.792C126.367 190.452 117.677 186.942 117.677 186.942L110.867 188.912L105.727 171.022L119.517 168.032L131.147 160.362C132.557 159.432 134.217 158.932 135.907 158.932H158.747V164.632Z" fill="white"/>
<path d="M141.875 180.201C141.764 180.201 141.652 180.164 141.559 180.088L135.707 175.302C135.493 175.127 135.461 174.812 135.636 174.598C135.811 174.384 136.126 174.352 136.34 174.527L142.192 179.313C142.406 179.488 142.438 179.803 142.263 180.017C142.164 180.139 142.02 180.201 141.875 180.201Z" fill="#1B263B"/>
<path d="M146.076 175.922C145.964 175.922 145.85 175.884 145.757 175.806L139.805 170.852C139.593 170.675 139.564 170.36 139.741 170.148C139.917 169.937 140.232 169.907 140.445 170.084L146.397 175.038C146.609 175.215 146.638 175.53 146.461 175.742C146.362 175.86 146.22 175.922 146.076 175.922Z" fill="#1B263B"/>
<path d="M204.052 136.831L174.482 189.141C173.712 190.501 172.272 191.341 170.702 191.341H142.852C139.532 191.341 137.452 187.761 139.082 184.871L168.652 132.571C169.422 131.211 170.862 130.371 172.422 130.371H200.282C203.602 130.371 205.682 133.941 204.052 136.831Z" fill="#1B263B"/>
<path d="M191.419 165.551C190.949 166.471 190.089 167.061 189.139 167.221C189.559 167.641 189.859 168.151 190.039 168.701C190.329 169.611 190.279 170.631 189.809 171.541C189.099 172.941 187.599 173.691 186.119 173.541C186.499 173.941 186.769 174.421 186.939 174.931C187.229 175.851 187.179 176.871 186.709 177.781C186.079 179.011 184.849 179.741 183.549 179.791C183.719 180.041 183.859 180.301 183.969 180.571C184.359 181.531 184.369 182.571 183.899 183.491C182.959 185.311 180.469 185.921 178.359 184.841L173.666 182.598C172.606 182.058 171.846 181.188 171.456 180.228C171.066 179.268 171.066 178.218 171.526 177.308C172.096 176.188 173.266 175.528 174.566 175.448C174.336 175.128 174.156 174.768 174.036 174.398C173.736 173.488 173.796 172.468 174.256 171.558C174.976 170.158 176.476 169.398 177.956 169.548C177.576 169.148 177.296 168.668 177.136 168.158C176.836 167.248 176.886 166.228 177.356 165.318C178.086 163.878 179.636 163.128 181.156 163.318C181.076 163.168 181.016 163.018 180.966 162.858C180.716 162.088 180.756 161.218 181.156 160.448C181.946 158.898 183.866 158.278 185.416 159.078L190.039 161.291C190.819 161.691 191.359 162.371 191.609 163.141C191.859 163.911 191.809 164.781 191.419 165.551Z" fill="white"/>
<path d="M183.545 180.292C183.472 180.292 183.398 180.276 183.328 180.242L174.345 175.899C174.096 175.779 173.992 175.48 174.113 175.231C174.234 174.984 174.532 174.879 174.781 174.999L183.764 179.342C184.013 179.462 184.117 179.761 183.996 180.01C183.909 180.188 183.731 180.292 183.545 180.292Z" fill="#1B263B"/>
<path d="M186.115 174.042C186.041 174.042 185.967 174.026 185.896 173.991L177.733 169.998C177.485 169.876 177.382 169.577 177.504 169.329C177.626 169.081 177.925 168.979 178.173 169.1L186.336 173.093C186.584 173.215 186.687 173.514 186.565 173.762C186.478 173.939 186.3 174.042 186.115 174.042Z" fill="#1B263B"/>
<path d="M189.139 167.721C189.065 167.721 188.991 167.705 188.92 167.67L180.937 163.767C180.689 163.646 180.586 163.346 180.708 163.098C180.83 162.85 181.129 162.748 181.377 162.869L189.36 166.772C189.608 166.893 189.711 167.193 189.589 167.441C189.502 167.618 189.324 167.721 189.139 167.721Z" fill="#1B263B"/>
<path d="M79.8228 73.2576C80.9098 77.6726 83.6328 80.4506 87.7318 79.9396L83.1318 96.8166L106.122 116.745L108.355 95.7106C108.355 95.7106 111.236 95.0786 114.638 92.1506C118.04 89.2326 123.746 82.0206 124.192 75.2176L125.084 61.7976C119.489 61.7606 112.268 60.2176 106.738 58.7866C101.868 57.5226 98.3088 56.3516 98.3088 56.3516C98.2248 56.9746 98.0298 57.6156 97.7508 58.2566C96.2448 61.7416 92.3698 65.2176 92.3698 65.2176L92.3608 65.2826C92.3518 65.2736 92.3518 65.2636 92.3418 65.2636C92.3138 65.2356 92.2858 65.2076 92.2678 65.1796C90.9578 63.7486 89.2288 62.7816 87.3788 62.4936C86.4028 62.3446 85.3898 62.3816 84.3858 62.6236C80.0088 63.7126 78.6518 68.5276 79.8228 73.2576Z" fill="white"/>
<path d="M123.104 73.0067C123.194 71.6544 122.275 70.4925 121.053 70.4115C119.831 70.3305 118.767 71.3612 118.678 72.7135C118.588 74.0658 119.506 75.2277 120.729 75.3087C121.951 75.3897 123.014 74.3591 123.104 73.0067Z" fill="#1B263B"/>
<path d="M108.852 70.5418C109.281 69.256 108.686 67.8996 107.524 67.5121C106.362 67.1247 105.072 67.8529 104.643 69.1387C104.215 70.4245 104.809 71.7809 105.971 72.1684C107.134 72.5558 108.423 71.8276 108.852 70.5418Z" fill="#1B263B"/>
<path d="M119.425 67.0068C121.142 66.5838 123.015 67.0068 124.308 68.2438C124.565 68.4898 124.654 68.9178 124.395 69.2028C124.161 69.4608 123.711 69.5528 123.436 69.2898C123.309 69.1678 123.177 69.0528 123.036 68.9478C122.967 68.8958 122.897 68.8468 122.826 68.7988C122.818 68.7938 122.81 68.7888 122.801 68.7838C122.763 68.7618 122.725 68.7388 122.687 68.7178C122.534 68.6318 122.376 68.5548 122.214 68.4868C122.133 68.4528 122.051 68.4218 121.968 68.3918C121.953 68.3868 121.939 68.3818 121.928 68.3778C121.882 68.3638 121.836 68.3508 121.79 68.3388C121.62 68.2938 121.448 68.2578 121.274 68.2318C121.187 68.2188 121.1 68.2088 121.012 68.2008C120.968 68.1968 120.925 68.1938 120.881 68.1908C120.879 68.1908 120.88 68.1908 120.878 68.1908C120.873 68.1908 120.876 68.1908 120.866 68.1908C120.69 68.1898 120.515 68.1948 120.34 68.2128C120.253 68.2218 120.166 68.2328 120.079 68.2478C120.036 68.2548 119.993 68.2628 119.949 68.2708C119.937 68.2728 119.932 68.2738 119.927 68.2748C119.918 68.2768 119.914 68.2778 119.902 68.2808C119.558 68.3658 119.148 68.2608 119.025 67.8838C118.924 67.5678 119.055 67.0978 119.425 67.0068Z" fill="#1B263B"/>
<path d="M110.596 66.0303C110.339 66.3333 109.92 66.2753 109.634 66.0663C109.625 66.0593 109.62 66.0563 109.613 66.0513C109.609 66.0493 109.604 66.0463 109.594 66.0393C109.557 66.0153 109.52 65.9913 109.483 65.9683C109.408 65.9223 109.332 65.8783 109.255 65.8373C109.1 65.7543 108.94 65.6833 108.777 65.6183C108.768 65.6143 108.771 65.6153 108.766 65.6133C108.764 65.6123 108.766 65.6133 108.763 65.6123C108.721 65.5983 108.68 65.5843 108.638 65.5723C108.554 65.5463 108.469 65.5233 108.384 65.5023C108.213 65.4603 108.04 65.4283 107.866 65.4063C107.818 65.4003 107.771 65.3953 107.723 65.3903C107.712 65.3893 107.697 65.3883 107.681 65.3883C107.593 65.3853 107.505 65.3823 107.418 65.3833C107.242 65.3843 107.067 65.3963 106.893 65.4183C106.849 65.4233 106.806 65.4303 106.763 65.4363C106.754 65.4373 106.744 65.4393 106.735 65.4413C106.651 65.4583 106.567 65.4773 106.484 65.4993C106.314 65.5443 106.148 65.6003 105.984 65.6653C105.63 65.8043 105.249 65.5483 105.13 65.2213C104.998 64.8593 105.243 64.4973 105.574 64.3673C107.239 63.7113 109.133 64.0283 110.562 65.0693C110.868 65.2923 110.811 65.7763 110.596 66.0303Z" fill="#1B263B"/>
<path d="M105.493 85.5113C104.254 84.9573 103.43 84.1393 103.046 83.0813C102.399 81.3013 103.255 79.5093 103.292 79.4343C103.393 79.2273 103.64 79.1383 103.849 79.2283L111.556 82.5703C111.664 82.6173 111.747 82.7053 111.788 82.8153C111.828 82.9253 111.822 83.0473 111.771 83.1523C111.754 83.1863 110.35 85.9893 107.561 85.9893C106.941 85.9893 106.251 85.8513 105.493 85.5113ZM103.915 80.1933C103.732 80.7383 103.489 81.7823 103.854 82.7883C104.156 83.6193 104.825 84.2713 105.844 84.7273C108.577 85.9503 110.203 84.0363 110.771 83.1663L103.915 80.1933Z" fill="#1B263B"/>
<path d="M86.7763 77.888C86.6823 77.888 86.5883 77.863 86.5023 77.811C84.9203 76.848 84.0653 74.837 84.4703 73.03C84.8483 71.337 86.3033 69.953 88.0003 69.623C88.2693 68.678 88.1953 67.693 87.7893 66.937C87.3083 66.041 86.3343 65.481 85.4273 65.58C84.5093 65.678 83.7193 66.541 83.7703 67.392C83.7883 67.684 83.5663 67.934 83.2743 67.951C82.9823 67.978 82.7323 67.747 82.7153 67.455C82.6293 66.028 83.8193 64.688 85.3153 64.529C86.6523 64.383 88.0423 65.173 88.7203 66.437C89.3173 67.548 89.3823 68.948 88.8983 70.277C88.8293 70.466 88.6583 70.6 88.4583 70.622C87.0533 70.773 85.8103 71.883 85.5013 73.261C85.1923 74.64 85.8453 76.174 87.0523 76.908C87.3013 77.06 87.3803 77.385 87.2293 77.635C87.1283 77.797 86.9543 77.887 86.7763 77.888Z" fill="#1B263B"/>
<path d="M105.888 96.293C105.468 96.293 105.074 96.251 104.723 96.153C102.245 95.464 98.8755 91.485 98.7335 91.316C98.5455 91.093 98.5745 90.759 98.7975 90.571C99.0225 90.383 99.3555 90.413 99.5425 90.635C99.5755 90.674 102.843 94.533 105.007 95.135C106.778 95.629 110.463 94.241 111.733 93.664C112 93.545 112.312 93.662 112.432 93.927C112.553 94.193 112.435 94.506 112.17 94.626C111.996 94.705 108.466 96.293 105.888 96.293Z" fill="#1B263B"/>
<path d="M106.116 76.3959C105.036 76.3959 103.94 76.1919 102.878 75.7619C100.738 74.8939 99.0644 73.2449 98.1644 71.1189C97.2644 68.9919 97.2474 66.6419 98.1144 64.5019C98.9814 62.3619 100.631 60.6879 102.757 59.7879C104.882 58.8879 107.233 58.8699 109.374 59.7379C113.792 61.5289 115.929 66.5799 114.138 70.9979C112.778 74.3559 109.535 76.3959 106.116 76.3959ZM106.126 60.1569C105.123 60.1569 104.121 60.3589 103.17 60.7609C101.303 61.5509 99.8564 63.0209 99.0944 64.8989C98.3324 66.7779 98.3484 68.8399 99.1374 70.7069C99.9274 72.5739 101.397 74.0209 103.275 74.7829C107.151 76.3549 111.587 74.4789 113.159 70.6019C114.731 66.7239 112.855 62.2909 108.977 60.7189C108.057 60.3439 107.091 60.1569 106.126 60.1569Z" fill="#415A77"/>
<path d="M125.072 81.8064C123.992 81.8064 122.896 81.6034 121.835 81.1734C117.417 79.3824 115.28 74.3304 117.071 69.9124C117.939 67.7724 119.588 66.0984 121.714 65.1984C123.839 64.2974 126.19 64.2804 128.331 65.1484C132.749 66.9394 134.886 71.9904 133.095 76.4084C131.735 79.7664 128.49 81.8064 125.072 81.8064ZM125.082 65.5674C124.079 65.5674 123.077 65.7694 122.126 66.1714C120.259 66.9614 118.812 68.4314 118.05 70.3094C116.478 74.1874 118.353 78.6204 122.232 80.1934C126.107 81.7654 130.544 79.8904 132.116 76.0114C133.688 72.1334 131.812 67.7004 127.934 66.1284C127.013 65.7544 126.048 65.5674 125.082 65.5674Z" fill="#415A77"/>
<path d="M89.7506 59.5572L89.2188 60.4707L98.1528 65.6728L98.6847 64.7593L89.7506 59.5572Z" fill="#415A77"/>
<path d="M113.862 70.3116L113.445 71.2832L116.818 72.7284L117.234 71.7568L113.862 70.3116Z" fill="#415A77"/>
<path d="M84.3835 62.6253C85.3875 62.3833 86.4005 62.3463 87.3765 62.4953C89.2255 62.7833 90.9545 63.7503 92.2655 65.1813L92.3675 65.2183C92.3675 65.2183 96.2435 61.7423 97.7485 58.2573C98.0275 57.6163 98.2225 56.9743 98.3065 56.3523C98.3065 56.3523 101.867 57.5233 106.736 58.7873C112.266 60.2183 119.487 61.7613 125.082 61.7983C128.632 61.8263 131.532 61.2503 132.926 59.6603C139.236 52.4483 134.636 45.0133 127.675 45.7103C121.002 46.3883 116.495 46.2683 109.208 41.6673C101.922 37.0573 94.2535 37.8293 92.0145 43.7303C92.0145 43.7303 79.9785 44.1033 84.3835 62.6253Z" fill="#1B263B"/>
<path d="M117.536 82.2958C117.48 82.2958 117.425 82.2868 117.37 82.2698L110.777 80.0938C110.5 80.0018 110.349 79.7028 110.441 79.4268C110.533 79.1498 110.833 78.9998 111.108 79.0908L116.947 81.0178L116.092 70.0108C116.07 69.7198 116.287 69.4658 116.578 69.4428C116.872 69.4218 117.123 69.6378 117.146 69.9288L118.063 81.7278C118.077 81.9038 118.001 82.0758 117.862 82.1848C117.768 82.2578 117.653 82.2958 117.536 82.2958Z" fill="#1B263B"/>
<path d="M303.067 272.512H182.157C179.442 272.512 177.234 270.303 177.234 267.588V194.416C177.234 191.701 179.442 189.492 182.157 189.492H303.068C305.783 189.492 307.992 191.701 307.992 194.416V267.588C307.991 270.303 305.782 272.512 303.067 272.512ZM182.157 190.231C179.849 190.231 177.971 192.109 177.971 194.417V267.589C177.971 269.897 179.848 271.775 182.157 271.775H303.068C305.376 271.775 307.254 269.897 307.254 267.589V194.417C307.254 192.109 305.377 190.231 303.068 190.231H182.157Z" fill="#1B263B"/>
<path d="M307.622 199.308H177.602V194.416C177.602 191.9 179.641 189.861 182.157 189.861H303.067C305.583 189.861 307.622 191.9 307.622 194.416V199.308Z" fill="#1B263B"/>
<path d="M185.85 221.406L204.898 221.406L204.898 202.358L185.85 202.358L185.85 221.406Z" fill="white"/>
<path d="M185.85 244.404L204.898 244.404L204.898 225.356L185.85 225.356L185.85 244.404Z" fill="white"/>
<path d="M185.85 266.736L204.898 266.736L204.898 247.688L185.85 247.688L185.85 266.736Z" fill="white"/>
<path d="M193.528 218.148L186.719 211.338L190.186 207.87L193.528 211.212L200.558 204.182L204.026 207.65L193.528 218.148Z" fill="#415A77"/>
<path d="M193.528 241.865L186.719 235.055L190.186 231.588L193.528 234.929L200.558 227.9L204.025 231.367L193.528 241.865Z" fill="#415A77"/>
<path d="M193.528 263.581L186.719 256.771L190.186 253.304L193.528 256.645L200.558 249.615L204.026 253.083L193.528 263.581Z" fill="#415A77"/>
<path d="M208.089 207.328L299.492 207.328L299.492 203.563L208.089 203.563L208.089 207.328Z" fill="white"/>
<path d="M208.089 214.469L299.492 214.469L299.492 210.704L208.089 210.704L208.089 214.469Z" fill="white"/>
<path d="M208.094 221.475L249.219 221.475L249.219 217.71L208.094 217.71L208.094 221.475Z" fill="white"/>
<path d="M208.089 229.691L299.492 229.691L299.492 225.926L208.089 225.926L208.089 229.691Z" fill="white"/>
<path d="M208.089 236.832L299.492 236.832L299.492 233.067L208.089 233.067L208.089 236.832Z" fill="white"/>
<path d="M208.094 243.836L249.219 243.836L249.219 240.071L208.094 240.071L208.094 243.836Z" fill="white"/>
<path d="M208.089 252.445L299.492 252.445L299.492 248.68L208.089 248.68L208.089 252.445Z" fill="white"/>
<path d="M208.089 259.586L299.492 259.586L299.492 255.821L208.089 255.821L208.089 259.586Z" fill="white"/>
<path d="M208.094 266.592L249.219 266.592L249.219 262.827L208.094 262.827L208.094 266.592Z" fill="white"/>
<path d="M414.372 229.083L407.821 248.685C398.853 275.494 369.22 282.729 348.907 263.069L334.06 248.692C309.275 224.698 316.737 180.359 346.802 173.019L368.201 167.794C398.255 160.456 425.311 196.367 414.372 229.083Z" fill="white"/>
<path d="M362.106 191.021C377.719 187.21 389.163 179.154 387.667 173.029C386.172 166.904 372.303 165.028 356.691 168.84C341.078 172.652 329.634 180.708 331.13 186.833C332.625 192.958 346.494 194.833 362.106 191.021Z" fill="#1B263B"/>
<path d="M401.351 150.628C401.351 172.394 379.994 179.579 353.648 179.579C327.302 179.579 305.945 172.394 305.945 150.628C305.945 128.862 327.302 108.438 353.648 108.438C379.994 108.439 401.351 128.863 401.351 150.628Z" fill="white"/>
<path d="M333.243 163.492C333.243 163.492 312.049 163.233 305.973 151.821C305.954 151.432 305.945 151.034 305.945 150.626C305.945 139.798 311.243 129.293 319.812 121.475H373.158C373.158 121.475 391.952 163.492 333.243 163.492Z" fill="#415A77"/>
<path d="M319.801 144.908C323.704 144.908 326.868 141.313 326.868 136.878C326.868 132.443 323.704 128.848 319.801 128.848C315.898 128.848 312.734 132.443 312.734 136.878C312.734 141.313 315.898 144.908 319.801 144.908Z" fill="white"/>
<path d="M344.544 144.908C348.447 144.908 351.611 141.313 351.611 136.878C351.611 132.443 348.447 128.848 344.544 128.848C340.641 128.848 337.477 132.443 337.477 136.878C337.477 141.313 340.641 144.908 344.544 144.908Z" fill="white"/>
<path d="M329.731 153.13C323.155 153.13 323.048 147.201 323.047 147.141C323.046 146.961 323.191 146.815 323.37 146.814H323.372C323.55 146.814 323.696 146.958 323.697 147.136C323.699 147.354 323.81 152.479 329.73 152.479C335.65 152.479 335.761 147.354 335.763 147.136C335.764 146.958 335.91 146.814 336.088 146.814H336.09C336.269 146.815 336.414 146.961 336.413 147.141C336.413 147.201 336.306 153.13 329.731 153.13Z" fill="#1B263B"/>
<path d="M384.912 172.851C384.86 172.851 384.808 172.838 384.758 172.812C384.6 172.727 384.541 172.53 384.626 172.372C389.253 163.776 391.213 153.697 390.145 143.993C389.076 134.288 384.968 124.879 378.579 117.496C378.462 117.36 378.476 117.155 378.612 117.037C378.747 116.919 378.952 116.933 379.071 117.07C385.545 124.551 389.707 134.087 390.791 143.921C391.874 153.755 389.888 163.969 385.198 172.68C385.14 172.789 385.029 172.851 384.912 172.851Z" fill="#1B263B"/>
<path d="M355.317 113.514C355.256 113.514 355.193 113.496 355.138 113.46C354.988 113.361 354.947 113.16 355.046 113.009C359.983 105.52 361.327 95.9383 358.642 87.3803C358.588 87.2093 358.684 87.0263 358.855 86.9733C359.025 86.9213 359.209 87.0153 359.262 87.1863C362.006 95.9293 360.633 105.717 355.589 113.368C355.527 113.462 355.423 113.514 355.317 113.514Z" fill="#1B263B"/>
<path d="M358.929 94.3513C363.942 94.3513 368.006 90.2874 368.006 85.2743C368.006 80.2612 363.942 76.1973 358.929 76.1973C353.915 76.1973 349.852 80.2612 349.852 85.2743C349.852 90.2874 353.915 94.3513 358.929 94.3513Z" fill="#415A77"/>
<path d="M393.671 224.047C401.303 224.047 407.49 216.208 407.49 206.537C407.49 196.867 401.303 189.027 393.671 189.027C386.039 189.027 379.852 196.867 379.852 206.537C379.852 216.208 386.039 224.047 393.671 224.047Z" fill="#415A77"/>
<path d="M346.564 233.318C334.695 233.318 322.833 230.557 312.215 225.219C308.098 223.15 306.438 218.134 308.507 214.017C310.576 209.9 315.591 208.239 319.709 210.31C330.92 215.944 343.908 217.903 356.28 215.826C368.654 213.748 380.29 207.656 389.044 198.67C392.259 195.369 397.541 195.3 400.843 198.517C404.143 201.732 404.212 207.015 400.997 210.316C389.787 221.822 374.887 229.623 359.043 232.284C354.919 232.976 350.741 233.318 346.564 233.318Z" fill="#1B263B"/>
<path d="M226.332 172.052C228.274 171.739 230.295 171.716 232.341 172.022C237.525 172.797 242.097 175.544 245.216 179.758C248.334 183.972 249.624 189.148 248.849 194.332L248.718 195.206C248.36 197.603 246.127 199.258 243.729 198.898C241.332 198.54 239.679 196.306 240.037 193.909L240.168 193.035C240.596 190.17 239.883 187.309 238.16 184.98C236.437 182.651 233.91 181.132 231.044 180.704C225.128 179.82 219.597 183.913 218.713 189.828L218.582 190.703C218.223 193.1 215.989 194.751 213.592 194.394C211.195 194.035 209.542 191.801 209.901 189.404L210.032 188.53C211.325 179.874 218.119 173.375 226.332 172.052Z" fill="#415A77"/>
<path d="M315.755 209.541C315.691 211.362 315.35 213.202 314.705 215.008C313.072 219.581 309.755 223.243 305.367 225.322C300.979 227.4 296.044 227.645 291.471 226.011L290.7 225.736C288.586 224.981 287.482 222.655 288.239 220.54C288.994 218.426 291.321 217.324 293.435 218.079L294.206 218.354C296.733 219.257 299.461 219.121 301.886 217.973C304.311 216.824 306.145 214.8 307.048 212.273C308.912 207.055 306.184 201.295 300.967 199.431L300.196 199.155C298.082 198.399 296.982 196.073 297.736 193.958C298.492 191.844 300.818 190.742 302.933 191.498L303.704 191.773C311.337 194.501 316.025 201.84 315.755 209.541Z" fill="#415A77"/>
<path d="M242.692 300.498H185.148V358.042H242.692V300.498Z" fill="#415A77"/>
<path d="M369.454 292.827H177.602V283.442C177.602 280.926 179.641 278.887 182.157 278.887H364.9C367.416 278.887 369.455 280.926 369.455 283.442L369.454 292.827Z" fill="#415A77"/>
<path d="M364.896 400.841H182.154C179.342 400.841 177.055 398.554 177.055 395.742V283.442C177.055 280.629 179.343 278.342 182.154 278.342H364.897C367.709 278.342 369.997 280.629 369.997 283.442V395.743C369.996 398.554 367.708 400.841 364.896 400.841ZM182.154 279.43C179.943 279.43 178.144 281.23 178.144 283.442V395.743C178.144 397.954 179.943 399.754 182.154 399.754H364.897C367.108 399.754 368.908 397.954 368.908 395.743V283.442C368.908 281.23 367.109 279.43 364.897 279.43H182.154Z" fill="#1B263B"/>
<path d="M362.453 285.801C362.453 286.421 362.203 286.991 361.793 287.401C361.383 287.811 360.813 288.061 360.193 288.061H349.213C347.973 288.061 346.953 287.051 346.953 285.801C346.953 285.181 347.213 284.611 347.613 284.201C348.033 283.791 348.593 283.541 349.213 283.541H360.193C361.443 283.541 362.453 284.551 362.453 285.801Z" fill="white"/>
<path d="M344.188 285.801C344.188 286.421 343.938 286.991 343.518 287.401C343.118 287.811 342.547 288.061 341.927 288.061H330.948C329.698 288.061 328.688 287.051 328.688 285.801C328.688 285.181 328.938 284.611 329.348 284.201C329.758 283.791 330.318 283.541 330.948 283.541H341.927C343.167 283.541 344.188 284.551 344.188 285.801Z" fill="#1B263B"/>
<path d="M325.617 285.801C325.617 286.421 325.367 286.991 324.947 287.401C324.547 287.811 323.977 288.061 323.357 288.061H312.377C311.127 288.061 310.117 287.051 310.117 285.801C310.117 285.181 310.367 284.611 310.777 284.201C311.187 283.791 311.747 283.541 312.377 283.541H323.357C324.597 283.541 325.617 284.551 325.617 285.801Z" fill="#415A77"/>
<path d="M206.954 350.616L187.992 331.654L197.053 322.594L206.954 332.495L231.524 307.924L240.585 316.985L206.954 350.616Z" fill="white"/>
<path d="M359.299 369.228H186.445C185.731 369.228 185.148 368.644 185.148 367.931V367.201C185.148 366.487 185.732 365.904 186.445 365.904H359.299C360.013 365.904 360.596 366.488 360.596 367.201V367.931C360.596 368.645 360.013 369.228 359.299 369.228Z" fill="white"/>
<path d="M359.487 380.982H186.633C185.919 380.982 185.336 380.398 185.336 379.685V378.955C185.336 378.241 185.92 377.658 186.633 377.658H359.487C360.201 377.658 360.784 378.242 360.784 378.955V379.685C360.784 380.398 360.2 380.982 359.487 380.982Z" fill="white"/>
<path d="M307.132 392.023H186.539C185.825 392.023 185.242 391.439 185.242 390.726V389.996C185.242 389.282 185.826 388.699 186.539 388.699H307.132C307.846 388.699 308.429 389.283 308.429 389.996V390.726C308.429 391.439 307.845 392.023 307.132 392.023Z" fill="white"/>
<path d="M321.853 346.326C315.926 346.326 311.105 341.505 311.105 335.579V312.611C311.105 307.818 307.205 303.918 302.412 303.918C297.619 303.918 293.719 307.818 293.719 312.611V331.411C293.719 336.629 289.474 340.874 284.256 340.874H283.921C278.703 340.874 274.458 336.629 274.458 331.411V310.617C274.458 306.285 270.934 302.762 266.603 302.762C262.272 302.762 258.749 306.286 258.749 310.617V349.557C258.749 350.001 258.39 350.361 257.945 350.361C257.5 350.361 257.141 350.001 257.141 349.557V310.617C257.141 305.399 261.385 301.154 266.603 301.154C271.821 301.154 276.066 305.399 276.066 310.617V331.411C276.066 335.743 279.59 339.266 283.921 339.266H284.256C288.588 339.266 292.111 335.742 292.111 331.411V312.611C292.111 306.931 296.731 302.311 302.411 302.311C308.09 302.311 312.711 306.932 312.711 312.611V335.579C312.711 340.619 316.811 344.719 321.851 344.719C326.891 344.719 330.99 340.619 330.99 335.579V330.052C330.99 324.29 335.678 319.602 341.44 319.602C347.202 319.602 351.89 324.29 351.89 330.052V352.647C351.89 353.091 351.531 353.451 351.086 353.451C350.641 353.451 350.282 353.091 350.282 352.647V330.052C350.282 325.177 346.316 321.21 341.44 321.21C336.564 321.21 332.598 325.176 332.598 330.052V335.579C332.6 341.504 327.779 346.326 321.853 346.326Z" fill="white"/>
<path d="M265.906 306.749C268.628 306.749 270.835 304.542 270.835 301.82C270.835 299.097 268.628 296.891 265.906 296.891C263.183 296.891 260.977 299.097 260.977 301.82C260.977 304.542 263.183 306.749 265.906 306.749Z" fill="#415A77"/>
<path d="M292.468 326.475C295.19 326.475 297.397 324.268 297.397 321.546C297.397 318.824 295.19 316.617 292.468 316.617C289.746 316.617 287.539 318.824 287.539 321.546C287.539 324.268 289.746 326.475 292.468 326.475Z" fill="#415A77"/>
<path d="M312.71 315.936C315.432 315.936 317.639 313.729 317.639 311.007C317.639 308.285 315.432 306.078 312.71 306.078C309.988 306.078 307.781 308.285 307.781 311.007C307.781 313.729 309.988 315.936 312.71 315.936Z" fill="#415A77"/>
<path d="M321.366 349.823C324.089 349.823 326.296 347.616 326.296 344.894C326.296 342.172 324.089 339.965 321.366 339.965C318.644 339.965 316.438 342.172 316.438 344.894C316.438 347.616 318.644 349.823 321.366 349.823Z" fill="#415A77"/>
<path d="M351.085 356.022C353.807 356.022 356.014 353.815 356.014 351.093C356.014 348.371 353.807 346.164 351.085 346.164C348.363 346.164 346.156 348.371 346.156 351.093C346.156 353.815 348.363 356.022 351.085 356.022Z" fill="#415A77"/>
<path d="M257.906 354.811C260.628 354.811 262.835 352.604 262.835 349.882C262.835 347.16 260.628 344.953 257.906 344.953C255.183 344.953 252.977 347.16 252.977 349.882C252.977 352.604 255.183 354.811 257.906 354.811Z" fill="#415A77"/>
<path d="M182.039 129.35C181.763 129.35 181.539 129.126 181.539 128.85V122.85C181.539 122.574 181.763 122.35 182.039 122.35C182.315 122.35 182.539 122.574 182.539 122.85V128.85C182.539 129.126 182.315 129.35 182.039 129.35ZM281.183 123.445C280.915 123.445 280.693 123.233 280.684 122.962C280.674 122.686 280.89 122.455 281.166 122.445C283.119 122.377 284.989 121.898 286.723 121.02C286.97 120.892 287.27 120.994 287.395 121.24C287.52 121.487 287.421 121.786 287.175 121.911C285.31 122.856 283.3 123.372 281.201 123.445C281.194 123.445 281.188 123.445 281.183 123.445ZM275.264 122.725C275.211 122.725 275.157 122.717 275.104 122.699C273.153 122.038 271.328 120.934 269.827 119.507C269.627 119.317 269.619 119.001 269.809 118.8C269.998 118.6 270.315 118.592 270.516 118.783C271.913 120.11 273.611 121.137 275.425 121.751C275.687 121.84 275.827 122.123 275.738 122.384C275.667 122.593 275.473 122.725 275.264 122.725ZM291.556 118.199C291.447 118.199 291.338 118.163 291.246 118.09C291.03 117.918 290.993 117.604 291.164 117.387C292.378 115.856 293.223 114.12 293.677 112.23C293.741 111.961 294.01 111.794 294.28 111.861C294.549 111.925 294.714 112.195 294.65 112.464C294.162 114.497 293.254 116.361 291.949 118.007C291.85 118.133 291.704 118.199 291.556 118.199ZM182.039 117.35C181.763 117.35 181.539 117.126 181.539 116.85V110.85C181.539 110.574 181.763 110.35 182.039 110.35C182.315 110.35 182.539 110.574 182.539 110.85V116.85C182.539 117.126 182.315 117.35 182.039 117.35ZM266.834 114.716C266.635 114.716 266.447 114.598 266.369 114.402C265.699 112.716 265.359 110.932 265.359 109.102V108.34C265.359 108.064 265.583 107.84 265.859 107.84C266.135 107.84 266.359 108.064 266.359 108.34V109.102C266.359 110.805 266.675 112.465 267.299 114.033C267.401 114.289 267.276 114.58 267.019 114.682C266.958 114.706 266.895 114.716 266.834 114.716ZM224.061 113.688H223.595C222.129 113.688 220.682 113.468 219.297 113.033C219.033 112.95 218.887 112.671 218.969 112.408C219.051 112.144 219.33 111.994 219.595 112.079C220.884 112.483 222.23 112.688 223.595 112.688H224.061C224.489 112.688 224.913 112.668 225.331 112.628C225.604 112.604 225.85 112.806 225.875 113.081C225.9 113.356 225.698 113.599 225.423 113.624C224.975 113.667 224.52 113.688 224.061 113.688ZM231.043 111.803C230.871 111.803 230.704 111.715 230.611 111.555C230.472 111.317 230.552 111.012 230.79 110.872C232.448 109.903 233.907 108.557 235.009 106.981C235.167 106.754 235.479 106.7 235.705 106.859C235.931 107.017 235.986 107.329 235.828 107.555C234.644 109.248 233.077 110.692 231.295 111.734C231.216 111.781 231.129 111.803 231.043 111.803ZM214.284 110.093C214.164 110.093 214.044 110.051 213.948 109.964C212.416 108.573 211.18 106.834 210.376 104.936C210.268 104.682 210.387 104.389 210.641 104.281C210.895 104.174 211.188 104.292 211.297 104.546C212.046 106.312 213.194 107.929 214.62 109.223C214.825 109.409 214.84 109.724 214.654 109.928C214.556 110.037 214.42 110.093 214.284 110.093ZM294.546 106.88C294.27 106.88 294.046 106.656 294.046 106.38V100.38C294.046 100.104 294.27 99.8795 294.546 99.8795C294.822 99.8795 295.046 100.104 295.046 100.38V106.38C295.046 106.656 294.822 106.88 294.546 106.88ZM182.039 105.35C181.763 105.35 181.539 105.126 181.539 104.85V98.8495C181.539 98.5735 181.763 98.3495 182.039 98.3495C182.315 98.3495 182.539 98.5735 182.539 98.8495V104.85C182.539 105.126 182.315 105.35 182.039 105.35ZM265.859 102.84C265.583 102.84 265.359 102.616 265.359 102.34V96.3405C265.359 96.0645 265.583 95.8405 265.859 95.8405C266.135 95.8405 266.359 96.0645 266.359 96.3405V102.34C266.359 102.617 266.135 102.84 265.859 102.84ZM237.7 102.27C237.671 102.27 237.642 102.268 237.612 102.262C237.34 102.214 237.159 101.954 237.207 101.682C237.344 100.911 237.413 100.123 237.412 99.3365V95.7835C237.412 95.5075 237.636 95.2835 237.912 95.2835C238.188 95.2835 238.412 95.5075 238.412 95.7835V99.3355C238.412 100.18 238.338 101.028 238.191 101.856C238.149 102.1 237.938 102.27 237.7 102.27ZM209.743 99.3895C209.467 99.3895 209.243 99.1655 209.243 98.8895V92.8895C209.243 92.6135 209.467 92.3895 209.743 92.3895C210.019 92.3895 210.243 92.6135 210.243 92.8895V98.8895C210.243 99.1655 210.019 99.3895 209.743 99.3895ZM294.546 94.8795C294.27 94.8795 294.046 94.6555 294.046 94.3795V88.3795C294.046 88.1035 294.27 87.8795 294.546 87.8795C294.822 87.8795 295.046 88.1035 295.046 88.3795V94.3795C295.046 94.6555 294.822 94.8795 294.546 94.8795ZM182.039 93.3495C181.763 93.3495 181.539 93.1255 181.539 92.8495V86.8495C181.539 86.5735 181.763 86.3495 182.039 86.3495C182.315 86.3495 182.539 86.5735 182.539 86.8495V92.8495C182.539 93.1255 182.315 93.3495 182.039 93.3495ZM265.859 90.8405C265.583 90.8405 265.359 90.6165 265.359 90.3405V84.3405C265.359 84.0645 265.583 83.8405 265.859 83.8405C266.135 83.8405 266.359 84.0645 266.359 84.3405V90.3405C266.359 90.6175 266.135 90.8405 265.859 90.8405ZM237.912 90.2845C237.636 90.2845 237.412 90.0605 237.412 89.7845V83.7845C237.412 83.5085 237.636 83.2845 237.912 83.2845C238.188 83.2845 238.412 83.5085 238.412 83.7845V89.7845C238.412 90.0605 238.189 90.2845 237.912 90.2845ZM209.743 87.3895C209.467 87.3895 209.243 87.1655 209.243 86.8895V80.8895C209.243 80.6135 209.467 80.3895 209.743 80.3895C210.019 80.3895 210.243 80.6135 210.243 80.8895V86.8895C210.243 87.1655 210.019 87.3895 209.743 87.3895ZM294.546 82.8795C294.27 82.8795 294.046 82.6555 294.046 82.3795V76.3795C294.046 76.1035 294.27 75.8795 294.546 75.8795C294.822 75.8795 295.046 76.1035 295.046 76.3795V82.3795C295.046 82.6555 294.822 82.8795 294.546 82.8795ZM182.039 81.3495C181.763 81.3495 181.539 81.1255 181.539 80.8495V74.8495C181.539 74.5735 181.763 74.3495 182.039 74.3495C182.315 74.3495 182.539 74.5735 182.539 74.8495V80.8495C182.539 81.1255 182.315 81.3495 182.039 81.3495ZM265.859 78.8405C265.583 78.8405 265.359 78.6165 265.359 78.3405V72.9505C265.359 72.7535 265.355 72.5575 265.346 72.3625C265.334 72.0865 265.548 71.8535 265.824 71.8415C266.101 71.8345 266.333 72.0435 266.345 72.3195C266.354 72.5285 266.359 72.7395 266.359 72.9505V78.3405C266.359 78.6175 266.135 78.8405 265.859 78.8405ZM237.912 78.2845C237.636 78.2845 237.412 78.0605 237.412 77.7845V72.9515C237.412 72.5455 237.429 72.1425 237.462 71.7445C237.484 71.4695 237.728 71.2645 238.002 71.2885C238.277 71.3115 238.481 71.5535 238.458 71.8285C238.427 72.1985 238.412 72.5735 238.412 72.9515V77.7845C238.412 78.0605 238.189 78.2845 237.912 78.2845ZM209.743 75.3895C209.467 75.3895 209.243 75.1655 209.243 74.8895V68.8895C209.243 68.6135 209.467 68.3895 209.743 68.3895C210.019 68.3895 210.243 68.6135 210.243 68.8895V74.8895C210.243 75.1655 210.019 75.3895 209.743 75.3895ZM294.546 70.8795C294.27 70.8795 294.046 70.6555 294.046 70.3795V64.3795C294.046 64.1035 294.27 63.8795 294.546 63.8795C294.822 63.8795 295.046 64.1035 295.046 64.3795V70.3795C295.046 70.6555 294.822 70.8795 294.546 70.8795ZM182.039 69.3495C181.763 69.3495 181.539 69.1255 181.539 68.8495V62.8495C181.539 62.5735 181.763 62.3495 182.039 62.3495C182.315 62.3495 182.539 62.5735 182.539 62.8495V68.8495C182.539 69.1255 182.315 69.3495 182.039 69.3495ZM354.162 69.2145C353.996 69.2145 353.834 69.1325 353.739 68.9825C352.73 67.3905 351.099 66.2555 349.263 65.8695C348.993 65.8125 348.82 65.5475 348.877 65.2775C348.934 65.0075 349.199 64.8355 349.469 64.8915C351.567 65.3325 353.431 66.6285 354.583 68.4475C354.731 68.6805 354.662 68.9895 354.428 69.1375C354.346 69.1895 354.253 69.2145 354.162 69.2145ZM264.315 67.0905C264.134 67.0905 263.96 66.9915 263.871 66.8205C262.989 65.1165 261.721 63.5915 260.202 62.4095C259.984 62.2405 259.945 61.9255 260.115 61.7075C260.284 61.4895 260.599 61.4485 260.817 61.6205C262.449 62.8915 263.812 64.5305 264.759 66.3605C264.886 66.6065 264.79 66.9075 264.545 67.0345C264.471 67.0725 264.392 67.0905 264.315 67.0905ZM239.722 66.6005C239.638 66.6005 239.553 66.5795 239.475 66.5355C239.235 66.3985 239.151 66.0935 239.288 65.8535C240.31 64.0615 241.738 62.4775 243.418 61.2745C243.643 61.1125 243.955 61.1655 244.115 61.3895C244.276 61.6135 244.224 61.9265 244 62.0865C242.437 63.2065 241.107 64.6805 240.157 66.3485C240.064 66.5105 239.895 66.6005 239.722 66.6005ZM343.378 65.7185H337.378C337.102 65.7185 336.878 65.4945 336.878 65.2185C336.878 64.9425 337.102 64.7185 337.378 64.7185H343.378C343.654 64.7185 343.878 64.9425 343.878 65.2185C343.878 65.4945 343.655 65.7185 343.378 65.7185ZM331.548 64.5415C331.479 64.5415 331.409 64.5275 331.342 64.4975C329.46 63.6435 327.763 62.3495 326.436 60.7545C326.259 60.5425 326.288 60.2275 326.5 60.0505C326.711 59.8735 327.027 59.9035 327.204 60.1145C328.435 61.5935 330.009 62.7945 331.755 63.5855C332.006 63.6995 332.118 63.9965 332.004 64.2475C331.92 64.4325 331.738 64.5415 331.548 64.5415ZM209.743 63.3895C209.467 63.3895 209.243 63.1655 209.243 62.8895V60.6365C209.243 59.4245 209.08 58.2245 208.761 57.0695C208.687 56.8035 208.844 56.5275 209.11 56.4545C209.374 56.3845 209.652 56.5375 209.725 56.8035C210.068 58.0445 210.243 59.3345 210.243 60.6365V62.8895C210.243 63.1655 210.019 63.3895 209.743 63.3895ZM255.137 59.9535C255.1 59.9535 255.062 59.9495 255.024 59.9405C254.042 59.7135 253.027 59.5985 252.007 59.5985H251.765C250.927 59.5985 250.088 59.6765 249.273 59.8305C249.005 59.8815 248.741 59.7035 248.689 59.4325C248.638 59.1615 248.816 58.8995 249.087 58.8485C249.963 58.6825 250.864 58.5985 251.764 58.5985H252.006C253.101 58.5985 254.192 58.7225 255.248 58.9665C255.517 59.0295 255.685 59.2975 255.623 59.5665C255.57 59.7975 255.364 59.9535 255.137 59.9535ZM294.546 58.8795C294.27 58.8795 294.046 58.6555 294.046 58.3795V52.3795C294.046 52.1035 294.27 51.8795 294.546 51.8795C294.822 51.8795 295.046 52.1035 295.046 52.3795V58.3795C295.046 58.6555 294.822 58.8795 294.546 58.8795ZM182.55 57.3965C182.505 57.3965 182.46 57.3905 182.415 57.3775C182.149 57.3035 181.994 57.0275 182.068 56.7615C182.631 54.7485 183.608 52.9185 184.972 51.3215C185.152 51.1115 185.468 51.0875 185.677 51.2655C185.887 51.4455 185.912 51.7605 185.733 51.9705C184.464 53.4565 183.555 55.1585 183.031 57.0315C182.97 57.2525 182.768 57.3965 182.55 57.3965ZM324.136 55.6255C323.911 55.6255 323.707 55.4725 323.651 55.2445C323.388 54.1735 323.255 53.0655 323.255 51.9525C323.255 51.0525 323.161 50.1545 322.975 49.2835C322.918 49.0135 323.09 48.7475 323.36 48.6905C323.629 48.6335 323.895 48.8055 323.953 49.0755C324.153 50.0145 324.254 50.9835 324.254 51.9525C324.254 52.9855 324.378 54.0135 324.621 55.0065C324.687 55.2745 324.523 55.5455 324.255 55.6105C324.215 55.6215 324.175 55.6255 324.136 55.6255ZM206.455 52.1775C206.313 52.1775 206.173 52.1175 206.074 52.0015C204.828 50.5335 203.25 49.3305 201.511 48.5225C201.261 48.4055 201.152 48.1085 201.268 47.8575C201.384 47.6075 201.681 47.4975 201.933 47.6145C203.802 48.4835 205.497 49.7765 206.837 51.3535C207.016 51.5635 206.99 51.8795 206.779 52.0585C206.684 52.1385 206.57 52.1775 206.455 52.1775ZM190.096 48.5515C189.907 48.5515 189.726 48.4445 189.641 48.2605C189.525 48.0095 189.635 47.7125 189.886 47.5965C191.775 46.7255 193.795 46.2835 195.891 46.2835C196.167 46.2835 196.4 46.5075 196.4 46.7835C196.4 47.0595 196.186 47.2835 195.91 47.2835C193.941 47.2835 192.061 47.6945 190.305 48.5045C190.237 48.5375 190.166 48.5515 190.096 48.5515ZM295.695 47.0425C295.627 47.0425 295.558 47.0285 295.491 46.9995C295.239 46.8865 295.126 46.5905 295.239 46.3385C296.083 44.4515 297.368 42.7485 298.957 41.4125C299.168 41.2355 299.482 41.2625 299.662 41.4735C299.84 41.6845 299.812 42.0005 299.601 42.1785C298.127 43.4175 296.935 44.9975 296.153 46.7475C296.069 46.9325 295.886 47.0425 295.695 47.0425ZM320.947 44.2905C320.798 44.2905 320.651 44.2245 320.552 44.0985C319.367 42.5825 317.831 41.3335 316.11 40.4875C315.862 40.3655 315.76 40.0665 315.882 39.8185C316.003 39.5705 316.3 39.4675 316.551 39.5905C318.407 40.5025 320.063 41.8485 321.34 43.4825C321.51 43.7005 321.471 44.0145 321.254 44.1845C321.163 44.2555 321.055 44.2905 320.947 44.2905ZM304.573 39.5845C304.349 39.5845 304.146 39.4335 304.089 39.2065C304.022 38.9385 304.184 38.6675 304.452 38.6005C305.543 38.3265 306.672 38.1875 307.806 38.1875C307.808 38.1875 307.81 38.1875 307.812 38.1875H310.488C310.764 38.1875 311.014 38.4115 311.014 38.6875C311.014 38.9635 310.816 39.1875 310.539 39.1875H307.811C307.809 39.1875 307.807 39.1875 307.805 39.1875C306.752 39.1875 305.706 39.3165 304.694 39.5705C304.654 39.5795 304.613 39.5845 304.573 39.5845Z" fill="#1B263B"/>
<path d="M251.918 75.8619C261.176 75.8619 268.68 68.3573 268.68 59.0999C268.68 49.8425 261.176 42.3379 251.918 42.3379C242.661 42.3379 235.156 49.8425 235.156 59.0999C235.156 68.3573 242.661 75.8619 251.918 75.8619Z" fill="#415A77"/>
<path d="M245.776 66.3862C245.574 66.3862 245.371 66.3202 245.201 66.1842L237.183 59.7802C236.964 59.6052 236.836 59.3392 236.836 59.0592C236.836 58.7792 236.964 58.5132 237.183 58.3382L245.098 52.0162C245.496 51.6982 246.077 51.7632 246.395 52.1612C246.713 52.5592 246.648 53.1402 246.25 53.4582L239.238 59.0592L246.353 64.7422C246.751 65.0602 246.816 65.6412 246.498 66.0392C246.316 66.2672 246.047 66.3862 245.776 66.3862Z" fill="white"/>
<path d="M258.057 66.3862C257.786 66.3862 257.518 66.2672 257.335 66.0392C257.017 65.6412 257.082 65.0602 257.48 64.7422L264.595 59.0592L257.583 53.4582C257.185 53.1402 257.12 52.5592 257.438 52.1612C257.756 51.7632 258.337 51.6982 258.735 52.0162L266.65 58.3382C266.869 58.5132 266.997 58.7792 266.997 59.0592C266.997 59.3392 266.869 59.6052 266.65 59.7802L258.632 66.1842C258.463 66.3202 258.259 66.3862 258.057 66.3862Z" fill="white"/>
<path d="M250.111 68.0784C249.982 68.0964 249.848 68.0864 249.715 68.0454C249.228 67.8954 248.954 67.3794 249.104 66.8914L254.066 50.7614C254.216 50.2744 254.732 50.0004 255.22 50.1504C255.707 50.3004 255.981 50.8164 255.831 51.3044L250.869 67.4344C250.76 67.7904 250.456 68.0314 250.111 68.0784Z" fill="white"/>
<path d="M255.696 143.018H258.287C258.287 140.851 257.793 138.669 256.849 136.709L254.516 137.835C253.733 136.211 252.593 134.792 251.199 133.681L252.815 131.658C251.965 130.98 251.042 130.398 250.061 129.921C249.081 129.452 248.046 129.09 246.984 128.85L246.411 131.373C245.558 131.178 244.668 131.076 243.754 131.076C242.84 131.076 241.949 131.178 241.095 131.375L240.522 128.85C239.46 129.09 238.425 129.452 237.445 129.921C236.467 130.398 235.541 130.981 234.691 131.658L236.307 133.681C234.912 134.792 233.773 136.211 232.99 137.835L230.657 136.709C229.715 138.67 229.221 140.852 229.219 143.018H231.812C231.812 144.874 232.236 146.633 232.991 148.201L230.658 149.327C231.612 151.282 232.989 153.029 234.693 154.378L236.309 152.353C237.689 153.456 239.316 154.259 241.097 154.662L240.524 157.187C242.649 157.673 244.861 157.673 246.987 157.187L246.414 154.664C248.195 154.259 249.822 153.457 251.202 152.353L252.818 154.378C254.521 153.029 255.901 151.282 256.853 149.327L254.52 148.201C255.272 146.633 255.696 144.875 255.696 143.018ZM243.751 151.211C239.328 151.211 235.742 147.625 235.742 143.2C235.742 138.777 239.328 135.191 243.751 135.191C248.176 135.191 251.762 138.777 251.762 143.2C251.761 147.625 248.175 151.211 243.751 151.211Z" fill="#415A77"/>
<path d="M293.512 165.616H298.542C298.534 164.448 298.446 163.277 298.266 162.115C298.084 160.955 297.803 159.809 297.445 158.691C297.09 157.57 296.627 156.484 296.095 155.438C295.561 154.394 294.952 153.386 294.255 152.441L290.192 155.397C288.057 152.463 285.027 150.223 281.5 149.08L283.051 144.298C278.569 142.838 273.682 142.838 269.199 144.298L270.753 149.08C267.227 150.223 264.194 152.463 262.059 155.4L257.996 152.441C257.302 153.386 256.69 154.394 256.158 155.438C255.624 156.485 255.163 157.57 254.808 158.691C254.447 159.809 254.166 160.956 253.984 162.115C253.808 163.278 253.717 164.448 253.711 165.616H258.739C258.739 169.437 259.97 172.969 262.059 175.837L257.996 178.793C260.743 182.597 264.723 185.485 269.2 186.936L270.754 182.156C272.445 182.704 274.25 183.002 276.126 183.002C278.002 183.002 279.809 182.704 281.501 182.153L283.052 186.935C287.529 185.483 291.509 182.596 294.256 178.792L290.193 175.836C292.281 172.969 293.512 169.437 293.512 165.616ZM276.129 175.004C270.639 175.004 266.192 170.555 266.192 165.067C266.192 159.579 270.638 155.13 276.129 155.13C281.617 155.13 286.063 159.579 286.063 165.067C286.063 170.555 281.617 175.004 276.129 175.004Z" fill="#415A77"/>
<path d="M265.542 140.746C268.827 140.746 271.49 138.083 271.49 134.798C271.49 131.513 268.827 128.85 265.542 128.85C262.257 128.85 259.594 131.513 259.594 134.798C259.594 138.083 262.257 140.746 265.542 140.746Z" fill="#415A77"/>
<path d="M470.766 436.599H0.403C0.18 436.599 0 436.418 0 436.196C0 435.974 0.18 435.793 0.403 435.793H470.766C470.989 435.793 471.169 435.974 471.169 436.196C471.169 436.418 470.989 436.599 470.766 436.599Z" fill="#1B263B"/>
</svg>
