<svg width="769" height="207" viewBox="0 0 769 207" fill="none" xmlns="http://www.w3.org/2000/svg">
<rect y="8" width="190" height="199" rx="42" fill="#E0E1DD"/>
<path d="M147.03 81.6039C145.43 42.4039 111.696 32.2706 95.0295 32.1039C84.5278 30.9069 44.5295 39.6039 43.0295 81.6039C41.8295 115.204 77.5295 165.271 95.5295 186.104C94.0295 189.104 148.63 120.804 147.03 81.6039Z" fill="#1B263B"/>
<path d="M63.5312 103.259V65.7836C63.5312 65.4463 63.8584 65.2058 64.1804 65.3064L95.3721 75.0538C95.4754 75.0861 95.5864 75.0839 95.6884 75.0477L125.864 64.3403C126.189 64.2248 126.531 64.4661 126.531 64.8115V102.764C126.531 102.969 126.406 103.153 126.216 103.229L95.212 115.532C95.0957 115.578 94.9664 115.579 94.8496 115.534L63.8533 103.726C63.6594 103.652 63.5312 103.466 63.5312 103.259Z" fill="#2C3B59"/>
<path d="M63.5312 103.259V65.7836C63.5312 65.4463 63.8584 65.2058 64.1804 65.3064L95.1758 74.9924C95.3867 75.0584 95.5294 75.2549 95.5267 75.4759L95.0401 114.888C95.0358 115.235 94.6869 115.472 94.3621 115.349L63.8533 103.726C63.6594 103.652 63.5312 103.466 63.5312 103.259Z" fill="#778DA9"/>
<path d="M95.3793 55.0458L64.5512 64.7553C64.0814 64.9033 64.086 65.5697 64.5577 65.7112L95.3712 74.954C95.471 74.9839 95.5776 74.9819 95.6762 74.9483L125.51 64.7764C125.971 64.619 125.957 63.9613 125.49 63.8235L95.6707 55.043C95.5755 55.015 95.474 55.0159 95.3793 55.0458Z" fill="#E0E1DD"/>
<path d="M64.0312 140.485V104.331C64.0312 103.98 64.3831 103.739 64.7105 103.864L94.8177 115.43C94.9349 115.475 95.0648 115.474 95.1815 115.428L125.816 103.272C126.144 103.141 126.5 103.383 126.5 103.736V140.464C126.5 140.555 126.477 140.641 126.43 140.719C118.722 153.471 102.158 179.743 95.8701 185.665C95.665 185.858 95.3477 185.814 95.1695 185.595C77.0767 163.439 70.574 153.577 64.085 140.71C64.0498 140.64 64.0312 140.563 64.0312 140.485Z" fill="#415A77"/>
<path d="M243.428 138V71.796H217.508V62.4H280.04V71.796H254.12V138H243.428ZM288.92 138V80.76H298.856V96.312L297.884 92.424C299.468 88.464 302.132 85.44 305.876 83.352C309.62 81.264 314.228 80.22 319.7 80.22V90.264C319.268 90.192 318.836 90.156 318.404 90.156C318.044 90.156 317.684 90.156 317.324 90.156C311.78 90.156 307.388 91.812 304.148 95.124C300.908 98.436 299.288 103.224 299.288 109.488V138H288.92ZM364.003 138V125.904L363.463 123.636V103.008C363.463 98.616 362.167 95.232 359.575 92.856C357.055 90.408 353.239 89.184 348.127 89.184C344.743 89.184 341.431 89.76 338.191 90.912C334.951 91.992 332.215 93.468 329.983 95.34L325.663 87.564C328.615 85.188 332.143 83.388 336.247 82.164C340.423 80.868 344.779 80.22 349.315 80.22C357.163 80.22 363.211 82.128 367.459 85.944C371.707 89.76 373.831 95.592 373.831 103.44V138H364.003ZM345.211 138.648C340.963 138.648 337.219 137.928 333.979 136.488C330.811 135.048 328.363 133.068 326.635 130.548C324.907 127.956 324.043 125.04 324.043 121.8C324.043 118.704 324.763 115.896 326.203 113.376C327.715 110.856 330.127 108.84 333.439 107.328C336.823 105.816 341.359 105.06 347.047 105.06H365.191V112.512H347.479C342.295 112.512 338.803 113.376 337.003 115.104C335.203 116.832 334.303 118.92 334.303 121.368C334.303 124.176 335.419 126.444 337.651 128.172C339.883 129.828 342.979 130.656 346.939 130.656C350.827 130.656 354.211 129.792 357.091 128.064C360.043 126.336 362.167 123.816 363.463 120.504L365.515 127.632C364.147 131.016 361.735 133.716 358.279 135.732C354.823 137.676 350.467 138.648 345.211 138.648ZM417.965 138.648C412.133 138.648 406.913 137.388 402.305 134.868C397.769 132.348 394.205 128.892 391.613 124.5C389.021 120.108 387.725 115.068 387.725 109.38C387.725 103.692 389.021 98.652 391.613 94.26C394.205 89.868 397.769 86.448 402.305 84C406.913 81.48 412.133 80.22 417.965 80.22C423.149 80.22 427.757 81.264 431.789 83.352C435.893 85.368 439.061 88.392 441.293 92.424L433.409 97.5C431.537 94.692 429.233 92.64 426.497 91.344C423.833 89.976 420.953 89.292 417.857 89.292C414.113 89.292 410.765 90.12 407.813 91.776C404.861 93.432 402.521 95.772 400.793 98.796C399.065 101.748 398.201 105.276 398.201 109.38C398.201 113.484 399.065 117.048 400.793 120.072C402.521 123.096 404.861 125.436 407.813 127.092C410.765 128.748 414.113 129.576 417.857 129.576C420.953 129.576 423.833 128.928 426.497 127.632C429.233 126.264 431.537 124.176 433.409 121.368L441.293 126.336C439.061 130.296 435.893 133.356 431.789 135.516C427.757 137.604 423.149 138.648 417.965 138.648ZM462.402 124.176L462.618 110.892L495.558 80.76H508.086L482.814 105.6L477.198 110.352L462.402 124.176ZM453.978 138V57.864H464.346V138H453.978ZM497.718 138L475.254 110.136L481.95 101.82L510.462 138H497.718Z" fill="#778DA9"/>
<path d="M543.968 138.864C538.208 138.864 532.7 138 527.444 136.272C522.188 134.472 518.048 132.168 515.024 129.36L519.02 120.936C521.9 123.456 525.572 125.544 530.036 127.2C534.5 128.856 539.144 129.684 543.968 129.684C548.36 129.684 551.924 129.18 554.66 128.172C557.396 127.164 559.412 125.796 560.708 124.068C562.004 122.268 562.652 120.252 562.652 118.02C562.652 115.428 561.788 113.34 560.06 111.756C558.404 110.172 556.208 108.912 553.472 107.976C550.808 106.968 547.856 106.104 544.616 105.384C541.376 104.664 538.1 103.836 534.788 102.9C531.548 101.892 528.56 100.632 525.824 99.12C523.16 97.608 521 95.592 519.344 93.072C517.688 90.48 516.86 87.168 516.86 83.136C516.86 79.248 517.868 75.684 519.884 72.444C521.972 69.132 525.14 66.504 529.388 64.56C533.708 62.544 539.18 61.536 545.804 61.536C550.196 61.536 554.552 62.112 558.872 63.264C563.192 64.416 566.936 66.072 570.104 68.232L566.54 76.872C563.3 74.712 559.88 73.164 556.28 72.228C552.68 71.22 549.188 70.716 545.804 70.716C541.556 70.716 538.064 71.256 535.328 72.336C532.592 73.416 530.576 74.856 529.28 76.656C528.056 78.456 527.444 80.472 527.444 82.704C527.444 85.368 528.272 87.492 529.928 89.076C531.656 90.66 533.852 91.92 536.516 92.856C539.252 93.792 542.24 94.656 545.48 95.448C548.72 96.168 551.96 96.996 555.2 97.932C558.512 98.868 561.5 100.092 564.164 101.604C566.9 103.116 569.096 105.132 570.752 107.652C572.408 110.172 573.236 113.412 573.236 117.372C573.236 121.188 572.192 124.752 570.104 128.064C568.016 131.304 564.776 133.932 560.384 135.948C556.064 137.892 550.592 138.864 543.968 138.864ZM611.586 138.648C606.69 138.648 602.37 137.748 598.626 135.948C594.954 134.148 592.074 131.412 589.986 127.74C587.97 123.996 586.962 119.316 586.962 113.7V80.76H597.33V112.512C597.33 118.128 598.662 122.34 601.326 125.148C604.062 127.956 607.878 129.36 612.774 129.36C616.374 129.36 619.506 128.64 622.17 127.2C624.834 125.688 626.886 123.528 628.326 120.72C629.766 117.84 630.486 114.384 630.486 110.352V80.76H640.854V138H631.026V122.556L632.646 126.66C630.774 130.476 627.966 133.428 624.222 135.516C620.478 137.604 616.266 138.648 611.586 138.648ZM660.592 138V80.76H670.528V96.312L669.556 92.424C671.14 88.464 673.804 85.44 677.548 83.352C681.292 81.264 685.9 80.22 691.372 80.22V90.264C690.94 90.192 690.508 90.156 690.076 90.156C689.716 90.156 689.356 90.156 688.996 90.156C683.452 90.156 679.06 91.812 675.82 95.124C672.58 98.436 670.96 103.224 670.96 109.488V138H660.592ZM729.111 138.648C722.991 138.648 717.591 137.388 712.911 134.868C708.303 132.348 704.703 128.892 702.111 124.5C699.591 120.108 698.331 115.068 698.331 109.38C698.331 103.692 699.555 98.652 702.003 94.26C704.523 89.868 707.943 86.448 712.263 84C716.655 81.48 721.587 80.22 727.059 80.22C732.603 80.22 737.499 81.444 741.747 83.892C745.995 86.34 749.307 89.796 751.683 94.26C754.131 98.652 755.355 103.8 755.355 109.704C755.355 110.136 755.319 110.64 755.247 111.216C755.247 111.792 755.211 112.332 755.139 112.836H706.431V105.384H749.739L745.527 107.976C745.599 104.304 744.843 101.028 743.259 98.148C741.675 95.268 739.479 93.036 736.671 91.452C733.935 89.796 730.731 88.968 727.059 88.968C723.459 88.968 720.255 89.796 717.447 91.452C714.639 93.036 712.443 95.304 710.859 98.256C709.275 101.136 708.483 104.448 708.483 108.192V109.92C708.483 113.736 709.347 117.156 711.075 120.18C712.875 123.132 715.359 125.436 718.527 127.092C721.695 128.748 725.331 129.576 729.435 129.576C732.819 129.576 735.879 129 738.615 127.848C741.423 126.696 743.871 124.968 745.959 122.664L751.683 129.36C749.091 132.384 745.851 134.688 741.963 136.272C738.147 137.856 733.863 138.648 729.111 138.648Z" fill="#1B263B"/>
</svg>
